# xmcd
#
# Track frame offsets:
#	150
#	20724
#	46442
#	65322
#	87850
#	110553
#	127449
#	148292
#	163755
#	181574
#	198425
#	224269
#
# Disc length: 3248 seconds
#
# Revision: 1
# Processed by: cddbd v1.5.2PL0 Copyright (c) Steve Scherf et al.
# Submitted via: audiograbber 1.83.01
#
DISCID=b60cae0c
DTITLE=Buddy Guy - Living Proof
DYEAR=2010
DGENRE=Blues
TTITLE0=74 Years Young
TTITLE1=Thank Me Someday
TTITLE2=On the Road
TTITLE3=Stay Around a Little Longer
TTITLE4=Key Don't Fit
TTITLE5=Living Proof
TTITLE6=Where the Blues Begins
TTITLE7=Too Soon
TTITLE8=Everybody's Got to Go
TTITLE9=Let the Door Knob Hit Ya
TTITLE10=Guess What
TTITLE11=Skanky
EXTD=
EXTT0=
EXTT1=
EXTT2=
EXTT3=
EXTT4=
EXTT5=
EXTT6=
EXTT7=
EXTT8=
EXTT9=
EXTT10=
EXTT11=
PLAYORDER=
